<svg width="31" height="31" viewBox="0 0 31 31" fill="none" xmlns="http://www.w3.org/2000/svg">
<path d="M15.7742 0.0955505C24.0932 0.0955505 30.8376 6.81128 30.8376 15.0956C30.8376 23.3798 24.0932 30.0956 15.7742 30.0956C9.04048 30.0954 3.33829 25.6953 1.40991 19.6248C2.14943 20.041 4.89518 21.1801 5.04468 21.2274L7.05933 21.8914C7.96484 24.5677 10.8845 26.0022 13.572 25.0975C15.325 24.5103 16.6228 23.0324 16.9763 21.2274L22.7683 17.1122C26.1775 16.7896 28.6758 13.7851 28.3562 10.3963C28.0557 7.26297 25.4263 4.85678 22.2546 4.82309C18.8602 4.82813 16.1 7.54262 16.0564 10.912L12.5798 15.1336C11.4176 14.9652 10.2357 15.2148 9.2478 15.8358L5.42261 14.1131C5.2628 14.0409 2.27101 12.9533 2.12573 13.0448C1.97552 13.1409 1.50896 13.1755 1.50854 13.3534L1.90894 19.6258C1.65413 19.5514 1.47787 19.5108 1.3689 19.4911C0.941694 18.1009 0.71167 16.625 0.71167 15.0956C0.71167 6.81142 7.45534 0.0957851 15.7742 0.0955505ZM12.5945 17.6893C12.7204 17.4343 13.0254 17.329 13.2869 17.4539C14.8268 18.1952 15.476 20.0337 14.7302 21.5692C14.3719 22.3056 13.7373 22.869 12.9578 23.1385C12.6189 23.2492 12.275 23.3065 11.9216 23.3065C11.457 23.3065 10.9971 23.2009 10.5808 22.9989C10.3242 22.8737 10.2176 22.5703 10.3435 22.3104C10.4694 22.0554 10.7744 21.9489 11.0359 22.0741C12.0479 22.5939 13.2971 22.204 13.8201 21.1932C14.3427 20.1825 13.9509 18.9455 12.9343 18.4256C12.9004 18.4064 12.8657 18.3922 12.8318 18.3778C12.5754 18.2526 12.4687 17.9491 12.5945 17.6893ZM22.2556 7.90317C23.9671 7.90336 25.3542 9.283 25.3542 10.9842C25.354 12.6853 23.967 14.0641 22.2556 14.0643C20.544 14.0643 19.1562 12.6855 19.156 10.9842C19.1561 9.28288 20.544 7.90317 22.2556 7.90317ZM22.2556 8.92856C21.1137 8.92866 20.1883 9.84919 20.1882 10.9842C20.1884 12.1191 21.1138 13.0388 22.2556 13.0389C23.3975 13.0389 24.3238 12.1192 24.324 10.9842C24.3239 9.84915 23.3976 8.92859 22.2556 8.92856Z" fill="#FFB548"/>
</svg>
