<svg width="19" height="15" viewBox="0 0 19 15" fill="none" xmlns="http://www.w3.org/2000/svg">
<path opacity="0.3" d="M18.3979 2.11444C17.723 2.40008 17.007 2.58761 16.274 2.67079C17.0364 2.23292 17.6229 1.54094 17.8989 0.715209C17.173 1.12689 16.3788 1.41694 15.5507 1.57282C14.8517 0.859422 13.8743 0.45534 12.8517 0.457037C10.8103 0.457037 9.15349 2.03904 9.15349 3.99056C9.15349 4.26785 9.18615 4.53812 9.25009 4.79618C6.17627 4.64857 3.45203 3.24231 1.62775 1.10395C1.30922 1.62524 1.12752 2.23292 1.12752 2.88071C1.12752 4.10618 1.78012 5.188 2.77218 5.82183C2.18482 5.80463 1.61034 5.65304 1.09693 5.37979V5.42485C1.09693 7.13654 2.37177 8.5649 4.06266 8.89023C3.51808 9.03115 2.9471 9.05182 2.39293 8.95067C2.86372 10.3548 4.22986 11.3763 5.84738 11.406C4.58198 12.3523 2.98768 12.9183 1.25471 12.9183C0.960031 12.918 0.665618 12.9015 0.372925 12.8689C2.00931 13.8712 3.95353 14.457 6.04172 14.457C12.8437 14.457 16.5626 9.07113 16.5626 4.40051C16.5626 4.24774 16.5626 4.09497 16.5511 3.9433C17.2748 3.4429 17.8997 2.82367 18.3968 2.11444H18.3979Z" fill="white"/>
</svg>
