<svg width="31" height="31" viewBox="0 0 31 31" fill="none" xmlns="http://www.w3.org/2000/svg">
<path d="M10.5514 2.7451C12.1356 3.36632 13.667 4.18679 15.1104 5.18894C15.2747 5.30029 15.4625 5.35889 15.6502 5.35889C15.838 5.35889 16.0257 5.30029 16.19 5.18894C17.6334 4.18679 19.1648 3.36046 20.7491 2.73924C21.107 2.59859 21.3476 2.24696 21.3417 1.86016C21.3417 1.47337 21.1011 1.1276 20.7373 0.992806C17.5689 -0.208601 13.7315 -0.208601 10.569 0.992806C10.211 1.1276 9.9646 1.47923 9.9646 1.86016C9.9646 2.2411 10.1876 2.60445 10.5514 2.7451Z" fill="#FFB548"/>
<path d="M24.1587 2.75041C23.8594 2.54529 23.478 2.52771 23.1553 2.70938C21.4009 3.71739 19.7052 4.87191 18.1034 6.14365C17.8922 6.3136 17.7631 6.5656 17.7513 6.83519C17.7396 7.10477 17.8452 7.36849 18.0388 7.55603C21.3599 10.7149 25.96 20.4023 27.0162 24.8563C24.7278 20.9883 19.6231 11.887 16.2845 8.77502C15.9265 8.44097 15.3633 8.44097 15.0053 8.77502C11.6608 11.887 6.5737 20.9942 4.28536 24.868C5.34152 20.414 9.92992 10.7149 13.2509 7.55603C13.4504 7.36849 13.5561 7.10477 13.5443 6.83519C13.5326 6.5656 13.4035 6.3136 13.1923 6.14365C11.5904 4.87191 9.88885 3.71739 8.14033 2.70938C7.82935 2.52771 7.43622 2.54529 7.13698 2.75041C3.05905 5.5576 0.624023 10.1698 0.624023 15.0927C0.624023 18.691 1.92075 22.1604 4.28536 24.868C7.11351 28.1851 11.2501 30.0956 15.6449 30.0956C20.0397 30.0956 24.1822 28.1909 27.0162 24.8621C29.369 22.1663 30.6658 18.6969 30.6658 15.0927C30.6658 10.1698 28.2307 5.5576 24.1587 2.75041Z" fill="#FFB548"/>
</svg>
